<?xml version="1.0" encoding="utf-8"?>
<!-- Generator: Adobe Illustrator 13.0.0, SVG Export Plug-In . SVG Version: 6.00 Build 14948)  -->
<!DOCTYPE svg PUBLIC "-//W3C//DTD SVG 1.1//EN" "http://www.w3.org/Graphics/SVG/1.1/DTD/svg11.dtd">
<svg version="1.1" id="Layer_2" xmlns="http://www.w3.org/2000/svg" xmlns:xlink="http://www.w3.org/1999/xlink" x="0px" y="0px"
	 width="246.844px" height="254.181px" viewBox="0 0 246.844 254.181" enable-background="new 0 0 246.844 254.181"
	 xml:space="preserve">
<path d="M231.344,91.021c0-21.5,9.313-36.875,15.5-48.063c-6.093,0.286-21.899-5.384-30.146-15.688
	c-5.041-6.298-8.307-15.12-9.026-26.906c-6.203,8.406-23.391,19.094-36.359,19.094c-17.552,0-36.094-6.563-47.891-19.458
	c-11.797,12.896-30.339,19.458-47.891,19.458c-12.969,0-30.156-10.688-36.359-19.094c-0.72,11.786-3.985,20.608-9.026,26.906
	C21.899,37.574,6.093,43.244,0,42.958c6.188,11.188,15.5,26.563,15.5,48.063c0,14.518-3.292,24.838-6.813,34.375
	c-2.89,7.828-7.313,16.562-7.313,33.916c0,34.412,16.98,54.587,38.438,66.459c27.087,14.988,59.413,16.941,74,21.75
	c4.874,1.606,8.96,5.634,9.609,6.66c0.649-1.026,4.735-5.054,9.609-6.66c14.587-4.809,46.913-6.762,74-21.75
	c21.457-11.872,38.438-32.047,38.438-66.459c0-17.354-4.423-26.088-7.313-33.916C234.636,115.858,231.344,105.539,231.344,91.021z"
	/>
<path fill="#F29C39" d="M226.698,125.521c-3.317-8.294-6.75-15.395-6.75-28.583c0-19.917,6.083-33.917,11.916-48.417
	c-6.458-0.75-28.958-12.5-31.416-29.833c-2.845,2.5-15.167,10.917-35.334,10.917c-25.333,0-41.692-14.01-41.692-14.01
	s-16.359,14.01-41.692,14.01c-20.167,0-32.489-8.417-35.334-10.917c-2.458,17.333-24.958,29.083-31.416,29.833
	c5.833,14.5,11.916,28.5,11.916,48.417c0,13.189-3.433,20.289-6.75,28.583c-3.665,9.164-7.25,19.535-7.25,35.583
	c0,34.699,23.384,53.215,47.75,62.417c21.692,8.192,40.977,9.87,49.917,12.25c5.982,1.592,10.766,3.971,12.875,6.391
	c2.109-2.42,6.861-4.799,12.844-6.391c8.94-2.38,28.225-4.058,49.917-12.25c24.366-9.202,47.75-27.718,47.75-62.417
	C233.948,145.056,230.363,134.685,226.698,125.521z M123.448,26.667c5.458,3.854,23.917,11.792,41.833,11.792
	c13.875,0,26.75-4.938,30.958-8.146c2.417,6.333,10.792,16.708,23.834,22.458c-1.125,1.917-9.354,24.333-9.354,41.063
	c0,19.073,6.883,33.283,11.081,47.082L55.166,32.866c6.032,2.766,15.95,5.592,26.449,5.592
	C99.531,38.458,117.99,30.521,123.448,26.667z M164.198,221.854c-16.049,3.527-34.994,5.481-40.776,10.728
	c-5.782-5.246-24.675-7.2-40.724-10.728c-4.579-1.006-8.935-2.552-12.666-3.833c-24.775-8.508-48.104-24.883-48.104-58.813
	c0-14.378,6.963-27.202,11.154-42.993l152.324,98.501c-2.806,1.216-5.662,2.316-8.541,3.305
	C173.133,219.303,168.777,220.849,164.198,221.854z M194.271,210.327L35.02,107.347c0.717-4.247,1.158-8.725,1.158-13.514
	c0-16.729-8.229-39.146-9.354-41.063c8.85-3.902,15.543-9.932,19.692-15.385l178.007,115.423c0.282,2.108,0.447,4.235,0.447,6.399
	C224.969,184.934,211.555,200.562,194.271,210.327z"/>
<polygon fill="#F29C39" points="53.531,54.267 53.531,107.694 62.219,113.327 62.219,78.641 79.656,124.634 92.469,132.942 
	92.469,79.515 83.406,73.638 83.406,109.217 64.406,61.318 "/>
<polygon fill="#F29C39" points="105.781,141.574 105.781,88.146 115.469,94.428 115.469,114.333 136.344,127.396 136.344,107.964 
	145.719,114.043 145.719,167.471 136.344,161.392 136.344,139.333 115.469,126.396 115.469,147.855 "/>
<polygon fill="#F29C39" points="158.969,176.063 158.969,122.635 169.594,129.524 169.594,171.975 193.969,187.78 193.969,198.758 
	"/>
</svg>
